# xmcd
#
# Track frame offsets:
#	150
#	20419
#	39616
#	61504
#	78601
#	100117
#	118391
#	136370
#	161043
#	179364
#
# Disc length: 2619 seconds
#
# Revision: 1
# Processed by: cddbd v1.5.2PL0 Copyright (c) Steve Scherf et al.
# Submitted via: audiograbber 1.80
#
DISCID=820a390a
DTITLE=Tiny Legs Tim  - Tiny Legs Tim - TLT
DYEAR=1900
DGENRE=
TTITLE0=Can't Win Them All
TTITLE1=Breakin' Down
TTITLE2=Please Dr. Please
TTITLE3=Can't Let Go
TTITLE4=When I Fall
TTITLE5=One Of These Days
TTITLE6=Standin' On The Sideline
TTITLE7=Pressure
TTITLE8=Backbone Blues
TTITLE9=Victory
EXTD=
EXTT0=
EXTT1=
EXTT2=
EXTT3=
EXTT4=
EXTT5=
EXTT6=
EXTT7=
EXTT8=
EXTT9=
PLAYORDER=
